<?xml version="1.0" encoding="iso-8859-1"?>
<!-- Generator: Adobe Illustrator 19.0.0, SVG Export Plug-In . SVG Version: 6.00 Build 0)  -->
<svg version="1.1" id="Layer_1" xmlns="http://www.w3.org/2000/svg" xmlns:xlink="http://www.w3.org/1999/xlink" x="0px" y="0px"
	 viewBox="0 0 455 455" style="enable-background:new 0 0 455 455;" xml:space="preserve">
<g>
	<path style="fill-rule:evenodd;clip-rule:evenodd;" d="M291.66,281.989c-26.425-15.854-57.133-23.767-91.591-23.767
		c-20.121,0-39.494,2.534-58.958,6.973c-4.755,0.908-8.554,4.207-8.554,10.819c0,5.159,3.97,9.898,9.958,9.898
		c1.941,0,5.175-0.985,7.757-1.549c15.87-3.298,32.833-5.456,49.688-5.456c30.192,0,58.662,7.257,81.489,21.062
		c2.378,1.453,4.111,2.33,6.66,2.33c5.175,0,9.79-4.159,9.79-9.851C297.9,286.616,295.598,284.271,291.66,281.989z"/>
	<path style="fill-rule:evenodd;clip-rule:evenodd;" d="M310.36,235.847c-31.348-18.76-71.234-29.035-112.465-29.035
		c-26.313,0-44.389,3.755-62.1,8.618c-6.536,1.845-9.79,6.456-9.79,13.149c0,6.832,5.536,12.352,12.304,12.352
		c2.862,0,4.583-0.909,7.661-1.769c14.245-3.783,31.46-6.58,51.409-6.58c38.869,0,74.376,10.099,100.005,25.296
		c2.33,1.361,4.471,2.738,7.893,2.738c6.849,0,12.276-5.503,12.276-12.32C317.552,242.696,315.611,238.865,310.36,235.847z"/>
	<path style="fill-rule:evenodd;clip-rule:evenodd;" d="M0,0v455h455V0H0z M227.494,384.992C140.514,384.992,70,314.478,70,227.498
		c0-86.992,70.514-157.49,157.494-157.49C314.47,70.008,385,140.506,385,227.498C385,314.478,314.47,384.992,227.494,384.992z"/>
	<path style="fill-rule:evenodd;clip-rule:evenodd;" d="M331.561,183.081c-35.539-20.873-84.211-30.38-130.444-30.38
		c-27.254,0-52.302,3.078-74.769,9.694c-5.708,1.689-11.007,6.488-11.007,15.038c0,8.413,6.444,15.058,14.838,15.058
		c2.91,0,5.784-1.157,8.085-1.721c19.873-5.391,41.559-7.565,62.913-7.565c42.78,0,87.012,9.41,115.531,26.501
		c3.002,1.641,4.907,2.422,8.097,2.422c7.957,0,14.854-6.16,14.87-14.742C339.675,189.882,336.344,185.799,331.561,183.081z"/>
</g>
<g>
</g>
<g>
</g>
<g>
</g>
<g>
</g>
<g>
</g>
<g>
</g>
<g>
</g>
<g>
</g>
<g>
</g>
<g>
</g>
<g>
</g>
<g>
</g>
<g>
</g>
<g>
</g>
<g>
</g>
</svg>
