<svg xmlns="http://www.w3.org/2000/svg" width="16" height="16" viewBox="0 0 16 16"><path fill-rule="evenodd" style="line-height:normal;text-indent:0;text-align:start;text-decoration-line:none;text-decoration-style:solid;text-decoration-color:#000;text-transform:none;block-progression:tb;white-space:normal;isolation:auto;mix-blend-mode:normal;solid-color:#000;solid-opacity:1" fill-rule="evenodd" d="M 4.9863281 3 A 0.99711215 0.99711215 0 0 0 4.0058594 4.0136719 L 4.0058594 11.873047 A 0.99711215 0.99711215 0 0 0 4.5371094 12.884766 A 0.99711215 0.99711215 0 0 0 4.6269531 12.927734 A 0.99711215 0.99711215 0 0 0 4.6289062 12.927734 A 0.99711215 0.99711215 0 0 0 4.7226562 12.958984 A 0.99711215 0.99711215 0 0 0 4.78125 12.972656 A 0.99711215 0.99711215 0 0 0 4.8378906 12.984375 A 0.99711215 0.99711215 0 0 0 4.9375 12.996094 A 0.99711215 0.99711215 0 0 0 5.0507812 12.998047 L 7.0039062 12.998047 A 0.99711215 0.99711215 0 0 0 7.1894531 12.982422 C 9.8501173 12.81753 12.003906 10.668421 12.003906 8.0117188 C 12.003906 5.3629956 9.8636984 3.2218486 7.2148438 3.0449219 A 0.99711215 0.99711215 0 0 0 7.0195312 3.0273438 L 5.2285156 3.0273438 A 0.99711215 0.99711215 0 0 0 4.9863281 3 z M 6 5.0214844 L 6.8632812 5.0214844 C 8.6424788 5.0214844 10.009766 6.3571187 10.009766 8.0117188 C 10.009766 9.6654188 8.6423635 11.003906 6.8632812 11.003906 L 6 11.003906 L 6 5.0214844 z " color="#000" enable-background="accumulate" font-family="sans-serif" font-weight="400" overflow="visible"/></svg>