<svg xmlns="http://www.w3.org/2000/svg" width="48" height="48" viewBox="0 0 48 48"><path fill-rule="evenodd" style="line-height:normal;text-indent:0;text-align:start;text-decoration-line:none;text-decoration-style:solid;text-decoration-color:#000;text-transform:none;block-progression:tb;isolation:auto;mix-blend-mode:normal" fill="#242730" d="M19.5 1006.362c-2.467 0-4.5 2.033-4.5 4.5v1.5c0 .554.446 1 1 1h1c.554 0 1-.446 1-1v-1.5c0-.857.643-1.5 1.5-1.5h16.504l.016 6.484c0 .826.67 1.494 1.496 1.497l6.484.016v28.501c0 .857-.643 1.5-1.5 1.5h-23c-.857 0-1.5-.643-1.5-1.5v-16.498c0-.554-.446-1-1-1h-1c-.554 0-1 .446-1 1v16.5c0 2.467 2.033 4.5 4.5 4.5h23c2.467 0 4.5-2.033 4.5-4.5v-30.486a1.5 1.5 0 0 0-.44-1.06l-7.513-7.514a1.5 1.5 0 0 0-1.06-.44H19.5zm-15.5 9c-1.108 0-2 .892-2 2v7c0 1.108.892 2 2 2h25c1.108 0 2-.892 2-2v-7c0-1.108-.892-2-2-2H4zm7.488 2.74h1.385c.382 0 .574.134.574.516s-.192.515-.574.515h-.123l1.117 3.303 1.154-3.303h-.123c-.382 0-.574-.133-.574-.515 0-.392.202-.516.584-.516h1.174c.392 0 .582.124.582.516 0 .334-.181.515-.506.515h-.076l-1.422 4.04c-.124.363-.173.457-.574.457h-.572c-.42 0-.448-.114-.573-.457l-1.453-4.04h-.076c-.325 0-.486-.18-.486-.515 0-.392.18-.516.562-.516zm6.07 0h2.149c1.337 0 2.004.543 2.004 1.498 0 .487-.209.861-.62 1.1.679.248.983.667.983 1.336 0 .487-.21.927-.601 1.223-.459.343-.965.37-1.547.37h-2.367c-.392 0-.584-.133-.584-.515 0-.334.18-.506.505-.506h.079v-3.475h-.079c-.324 0-.505-.18-.505-.515 0-.382.192-.516.584-.516zm1.155 1.002v1.174h.621c.707 0 1.05-.133 1.05-.592 0-.42-.287-.582-.898-.582h-.773zm0 2.111v1.422h.697c.898 0 1.346-.153 1.346-.707 0-.582-.438-.714-1.297-.714h-.746zM20 1042.362c-.554 0-1 .446-1 1v1c0 .554.446 1 1 1h3c.554 0 1-.446 1-1v-1c0-.554-.446-1-1-1h-3zm6 0c-.554 0-1 .446-1 1v1c0 .554.446 1 1 1h3c.554 0 1-.446 1-1v-1c0-.554-.446-1-1-1h-3zm6 0c-.554 0-1 .446-1 1v1c0 .554.446 1 1 1h3c.554 0 1-.446 1-1v-1c0-.554-.446-1-1-1h-3zm6 0c-.554 0-1 .446-1 1v1c0 .554.446 1 1 1h3c.554 0 1-.446 1-1v-1c0-.554-.446-1-1-1h-3z" color="#000" font-family="sans-serif" overflow="visible" transform="translate(0 -1004.362)"/></svg>