<svg xmlns="http://www.w3.org/2000/svg" enable-background="new 0 0 24 24" viewBox="0 0 24 24"><<path fill-rule="evenodd" d="M21.593,5.31l-8.682-5.09c-0.5-0.293-1.319-0.293-1.819,0L2.409,5.31C1.909,5.603,1.5,6.323,1.5,6.91v10.18c0,0.294,0.102,0.62,0.267,0.91c0.164,0.29,0.392,0.543,0.642,0.689l8.682,5.091c0.5,0.293,1.319,0.293,1.819,0l8.682-5.091c0.25-0.146,0.478-0.399,0.642-0.689c0.164-0.29,0.267-0.616,0.267-0.91V6.91c0.002-0.294-0.1-0.62-0.265-0.91C22.071,5.71,21.843,5.457,21.593,5.31z M12.002,19.109L12.002,19.109C8.14,19.109,5,15.92,5,12c0-3.92,3.14-7.109,7.001-7.109c2.575,0.005,4.825,1.417,6.044,3.519l0.018,0.033l-3.029,1.781c-0.618-1.069-1.744-1.777-3.033-1.779c-1.93,0-3.5,1.595-3.5,3.555c0,1.96,1.57,3.555,3.5,3.555c1.289-0.003,2.415-0.709,3.024-1.761l0.009-0.017l3.03,1.78C16.827,17.692,14.577,19.104,12.002,19.109z M19.001,12.395h-0.778v0.79h-0.778v-0.79h-0.778v-0.79h0.778v-0.79h0.778v0.79h0.778V12.395z M21.918,12.395H21.14v0.79h-0.778v-0.79h-0.777v-0.79h0.777v-0.79h0.778v0.79h0.778V12.395z"/></svg>