<svg width="16" height="16" xmlns="http://www.w3.org/2000/svg" xmlns:svg="http://www.w3.org/2000/svg" class="bi bi-filetype-md">
 <g class="layer">
  <title>Layer 1</title>
  <path d="m13.916528,4.5l0,9.5a2,2 0 0 1 -2,2l-3,0l0,-1l3,0a1,1 0 0 0 1,-1l0,-9.5l-2,0a1.5,1.5 0 0 1 -1.5,-1.5l0,-2l-5.5,0a1,1 0 0 0 -1,1l0,9l-1,0l0,-9a2,2 0 0 1 2,-2l5.5,0l4.5,4.5z" fill-rule="evenodd" id="svg_1"/>
  <text fill="#000000" font-family="Sans-serif" font-size="5" font-weight="bold" id="svg_6" stroke="null" stroke-dasharray="null" stroke-linecap="null" stroke-linejoin="null" stroke-width="0" text-anchor="middle" x="4.722038" xml:space="preserve" y="14.98915">C#</text>
 </g>

</svg>