<svg xmlns="http://www.w3.org/2000/svg" viewBox="0 0 512 512"><path fill-rule="evenodd" d="M254.6 188.2c0-28.5-21.6-51.6-48.3-51.6H36.8v103.3h169.5c26.7 0 48.3-23.2 48.3-51.7zm-151.5 32.5H92.2v-65H103v65zm68 0h-10.8l-28.8-46.8-.3.1v46.7h-10.8v-65h10.8l28.8 46.8.3-.1v-46.7h10.8v65zm28.2 0h-10.8v-65h10.8v65zM373.4 35.5h70.7v9.1h-70.7zM444 12.6c0-3.6-2.9-6.6-6.6-6.6H380c-3.6 0-6.6 2.9-6.6 6.6v13.8H444V12.6zM474.5 110.6c-1.1-2.3-3.4-3.7-5.9-3.7H444V53.6h-70.7v53.3h-24.5c-2.5 0-4.8 1.4-5.9 3.7-1.1 2.3-.8 5 .7 6.9l59.9 76.9c1.2 1.6 3.2 2.5 5.2 2.5s4-.9 5.2-2.5l59.9-76.9c1.5-2 1.8-4.7.7-6.9z"/><path d="M392.5 203l-59.9-76.9c-4.8-6.2-5.7-14.7-2.2-21.7 3.4-7 10.7-11.5 18.5-11.5h10.6V40.2h-274c-26.9 0-48.7 21.8-48.7 48.7v33.8h169.5c34.4 0 62.3 29.4 62.3 65.6 0 36.2-28 65.6-62.3 65.6H36.8v203.4c0 26.9 21.8 48.7 48.7 48.7H360c26.9 0 48.7-21.8 48.7-48.7V211c-6.4 0-12.3-2.9-16.2-8z"/></svg>