<svg width="16" height="16" xmlns="http://www.w3.org/2000/svg" xmlns:svg="http://www.w3.org/2000/svg" class="bi bi-filetype-md">

 <g class="layer">
  <title>Layer 1</title>
  <path d="m14,4.5l0,9.5a2,2 0 0 1 -2,2l-3,0l0,-1l3,0a1,1 0 0 0 1,-1l0,-9.5l-2,0a1.5,1.5 0 0 1 -1.5,-1.5l0,-2l-5.5,0a1,1 0 0 0 -1,1l0,9l-1,0l0,-9a2,2 0 0 1 2,-2l5.5,0l4.5,4.5zm-13.294,8.689l0,2.66l-0.706,0l0,-3.999l0.806,0l1.14,2.596l0.026,0l1.14,-2.596l0.8,0l0,3.999l-0.716,0l0,-2.66l-0.038,0l-0.946,2.159l-0.516,0l-0.952,-2.16l-0.038,0l0,0.001zm3.919,2.66l0,-3.999l1.459,0c0.406,0 0.741,0.078 1.005,0.234c0.263,0.157 0.46,0.383 0.589,0.68c0.13,0.297 0.196,0.655 0.196,1.075c0,0.422 -0.066,0.784 -0.196,1.084c-0.131,0.301 -0.33,0.53 -0.595,0.689c-0.264,0.158 -0.597,0.237 -1,0.237l-1.457,0l-0.001,0zm1.353,-3.354l-0.562,0l0,2.707l0.562,0c0.186,0 0.347,-0.028 0.484,-0.082a0.8,0.8 0 0 0 0.334,-0.252a1.14,1.14 0 0 0 0.196,-0.422c0.045,-0.168 0.067,-0.365 0.067,-0.592a2.1,2.1 0 0 0 -0.117,-0.753a0.89,0.89 0 0 0 -0.354,-0.454c-0.159,-0.102 -0.362,-0.152 -0.61,-0.152z" fill-rule="evenodd" id="svg_1"/>
  <rect fill="#ffffff" height="4.361436" id="svg_2" stroke="null" stroke-dasharray="null" stroke-linecap="null" stroke-linejoin="null" width="7.950752" x="0.005844" y="11.545911"/>
  <text fill="#000000" font-family="Serif" font-size="8" font-weight="bold" id="svg_3" stroke="null" stroke-dasharray="null" stroke-linecap="null" stroke-linejoin="null" stroke-width="0" text-anchor="middle" transform="matrix(0.792611, 0, 0, 0.686748, 1.9975, 5.25933)" x="3.003007" xml:space="preserve" y="14.546891">ini</text>
 </g>
</svg>