<svg id="SvgjsSvg1001" width="288" height="288" xmlns="http://www.w3.org/2000/svg" version="1.1" xmlns:xlink="http://www.w3.org/1999/xlink" xmlns:svgjs="http://svgjs.com/svgjs"><defs id="SvgjsDefs1002"></defs><g id="SvgjsG1008"><svg xmlns="http://www.w3.org/2000/svg" data-name="Layer 1" viewBox="0 0 64 64" width="288" height="288"><path fill-rule="evenodd" d="M53.42,10.15v43.7a2,2,0,0,1-2,2H20.14a2,2,0,0,1-2-2V23.09l11-14.94H51.42A2,2,0,0,1,53.42,10.15Z" class="coloredeeef svgShape"></path><path fill="#000000" d="M51.42,56.85H20.14a3,3,0,0,1-3-3V23.09a1,1,0,0,1,.2-.59l11-14.94a1,1,0,0,1,.8-.41H51.42a3,3,0,0,1,3,3v43.7A3,3,0,0,1,51.42,56.85ZM19.14,23.42V53.85a1,1,0,0,0,1,1H51.42a1,1,0,0,0,1-1V10.15a1,1,0,0,0-1-1H29.66Z" class="color002345 svgShape"></path><path fill="#000000" d="M29.14,8.17V21a2,2,0,0,1-2,2H18.19Z" class="colorcfd0d1 svgShape"></path><path fill="#000000" d="M27.14,24H18.19a1,1,0,0,1-.8-1.59l11-14.85a1,1,0,0,1,1.8.59V21A3,3,0,0,1,27.14,24Zm-7-2h7a1,1,0,0,0,1-1V11.21Z" class="color002345 svgShape"></path><rect width="31.32" height="14.04" x="10.58" y="35.47" fill="#000000" rx="2" class="colorffd973 svgShape"></rect><path fill="#000000" d="M39.9,50.51H12.58a3,3,0,0,1-3-3v-10a3,3,0,0,1,3-3H39.9a3,3,0,0,1,3,3v10A3,3,0,0,1,39.9,50.51Zm-27.32-14a1,1,0,0,0-1,1v10a1,1,0,0,0,1,1H39.9a1,1,0,0,0,1-1v-10a1,1,0,0,0-1-1Z" class="color002345 svgShape"></path><path fill="#ffffff" d="M18.53 43.74l1.62-.3a1 1 0 0 0 1 .71c.44 0 .65-.12.65-.36a.34.34 0 0 0-.15-.3 1.69 1.69 0 0 0-.54-.19 3.63 3.63 0 0 1-1.91-.78 1.67 1.67 0 0 1-.42-1.13 1.81 1.81 0 0 1 .61-1.4 2.47 2.47 0 0 1 1.74-.55 2.2 2.2 0 0 1 2.29 1.45L22 41.35a.88.88 0 0 0-.91-.6c-.38 0-.57.13-.57.37a.32.32 0 0 0 .13.26 1.47 1.47 0 0 0 .5.17 9.17 9.17 0 0 1 1.44.4 1.55 1.55 0 0 1 .71.59 1.65 1.65 0 0 1 .29 1 1.77 1.77 0 0 1-.7 1.46 2.82 2.82 0 0 1-1.82.56A2.36 2.36 0 0 1 18.53 43.74zM27.3 45.49a2.76 2.76 0 0 1-.57.06 2.51 2.51 0 0 1-2-.85A3.23 3.23 0 0 1 24 42.51a3.34 3.34 0 0 1 .72-2.21 2.72 2.72 0 0 1 3.92 0 3.1 3.1 0 0 1 .75 2.18 3.14 3.14 0 0 1-1 2.53c.06.17.23.25.53.25a2.79 2.79 0 0 0 .46-.05V46.5c-.3 0-.54 0-.72 0a1.58 1.58 0 0 1-.82-.2A1.28 1.28 0 0 1 27.3 45.49zm-.59-1.29a.65.65 0 0 0 .63-.4 3.76 3.76 0 0 0 .2-1.47c0-1-.27-1.55-.8-1.55s-.85.59-.85 1.77S26.16 44.2 26.71 44.2zM34.11 44v1.46h-4V39.53h1.74V44z" class="coloredeeef svgShape"></path></svg></g></svg>