<svg xmlns="http://www.w3.org/2000/svg" width="48" height="48" viewBox="0 0 48 48"><path fill-rule="evenodd" style="line-height:normal;text-indent:0;text-align:start;text-decoration-line:none;text-decoration-style:solid;text-decoration-color:#000;text-transform:none;block-progression:tb;isolation:auto;mix-blend-mode:normal" fill="#242730" d="M19.5 1006.362c-2.467 0-4.5 2.033-4.5 4.5v1.5c0 .554.446 1 1 1h1c.554 0 1-.446 1-1v-1.5c0-.857.643-1.5 1.5-1.5h16.504l.016 6.484c0 .826.67 1.494 1.496 1.497l6.484.016v28.501c0 .857-.643 1.5-1.5 1.5h-23c-.857 0-1.5-.643-1.5-1.5v-16.498c0-.554-.446-1-1-1h-1c-.554 0-1 .446-1 1v16.5c0 2.467 2.033 4.5 4.5 4.5h23c2.467 0 4.5-2.033 4.5-4.5v-30.486a1.5 1.5 0 0 0-.44-1.06l-7.513-7.514a1.5 1.5 0 0 0-1.06-.44H19.5zm-15.5 9c-1.108 0-2 .892-2 2v7c0 1.108.892 2 2 2h25c1.108 0 2-.892 2-2v-7c0-1.108-.892-2-2-2H4zm2.428 2.986a2.6 2.6 0 0 1 1.054.223c.091-.197.19-.223.413-.223.263 0 .328.082.337.428l.018.775v.041c0 .305-.101.43-.414.43-.33 0-.362-.181-.461-.379-.165-.321-.453-.504-.84-.504-.502 0-.808.265-.808.594 0 .42.462.46 1.295.633.996.206 1.464.65 1.464 1.467 0 .988-.69 1.54-1.943 1.54-.412 0-.79-.04-1.21-.197-.092.157-.199.198-.38.198-.33 0-.454-.098-.463-.436l-.023-.95v-.04c0-.346.115-.477.453-.477.313 0 .356.23.504.518.214.42.575.619 1.119.619.486 0 .783-.207.783-.586 0-.519-.463-.519-1.369-.758-.906-.239-1.383-.543-1.383-1.36 0-.914.758-1.556 1.854-1.556zm18.15.125h3.461c.42 0 .437.098.453.502l.041 1.203v.033c0 .322-.114.477-.428.477-.247 0-.404-.173-.404-.338 0-.025-.008-.073-.008-.172l-.025-.816h-.842v2.998h.678c.338 0 .502.107.502.445 0 .313-.156.445-.502.445h-2.389c-.346 0-.511-.132-.511-.445 0-.338.173-.445.511-.445h.674v-2.998h-.84l-.023.816v.1c0 .256-.15.41-.404.41-.314 0-.436-.155-.436-.476v-.033l.041-1.203c.016-.404.031-.502.451-.502zm-15.203.01h.97c.338 0 .503.106.503.444 0 .304-.148.447-.461.447h-.108l.149 2.355.496-1.738c.074-.272.246-.387.51-.387.263 0 .427.115.51.387l.511 1.738.139-2.355h-.108c-.313 0-.46-.142-.46-.447 0-.338.164-.444.501-.444h.975c.338 0 .502.106.502.444 0 .288-.15.447-.438.447h-.064l-.397 3.543c-.032.312-.09.336-.353.336h-.19c-.28 0-.321-.107-.404-.387l-.732-2.388-.71 2.388c-.082.28-.132.387-.404.387h-.189c-.264 0-.33-.023-.363-.336l-.385-3.543h-.068c-.289 0-.436-.159-.436-.447 0-.338.166-.444.504-.444zm10.322 0h3.295c.338 0 .42.081.42.37v.898c0 .346-.116.512-.437.512-.33 0-.428-.174-.428-.512v-.42h-1.87v1.03h.7v-.05c0-.304.14-.45.412-.45.305 0 .412.163.412.501v.83c0 .338-.107.504-.412.504-.272 0-.412-.14-.412-.428v-.076h-.7v1.18h.221c.33 0 .497.106.497.436s-.167.445-.497.445h-1.2c-.33 0-.495-.116-.495-.445 0-.28.156-.436.428-.436h.066v-2.998h-.058c-.28 0-.436-.159-.436-.447 0-.322.165-.444.494-.444zm-4.494.01h2.389c.338 0 .51.091.51.438 0 .338-.172.445-.51.445h-.676v3h.676c.338 0 .502.096.502.434 0 .313-.156.447-.502.447h-2.389c-.338 0-.512-.11-.512-.447 0-.338.174-.434.512-.434h.674v-3h-.674c-.338 0-.512-.107-.512-.445s.174-.438.512-.438zM20 1042.362c-.554 0-1 .446-1 1v1c0 .554.446 1 1 1h3c.554 0 1-.446 1-1v-1c0-.554-.446-1-1-1h-3zm6 0c-.554 0-1 .446-1 1v1c0 .554.446 1 1 1h3c.554 0 1-.446 1-1v-1c0-.554-.446-1-1-1h-3zm6 0c-.554 0-1 .446-1 1v1c0 .554.446 1 1 1h3c.554 0 1-.446 1-1v-1c0-.554-.446-1-1-1h-3zm6 0c-.554 0-1 .446-1 1v1c0 .554.446 1 1 1h3c.554 0 1-.446 1-1v-1c0-.554-.446-1-1-1h-3z" color="#000" font-family="sans-serif" overflow="visible" transform="translate(0 -1004.362)"/></svg>