<svg xmlns="http://www.w3.org/2000/svg" width="48" height="48" data-name="Layer 1" viewBox="0 0 48 48"><path fill-rule="evenodd" d="M6,6V42H42V6ZM26.9,25H22.21V38.76h-3V25H14.57V22.46H26.9ZM32.29,39a9.42,9.42,0,0,1-4.41-1l.66-2.46a8.29,8.29,0,0,0,3.94,1c1.9,0,3-.89,3-2.22s-.82-2-2.89-2.71c-2.69-.95-4.41-2.39-4.41-4.73,0-2.67,2.23-4.68,5.77-4.68a8.66,8.66,0,0,1,3.91.81l-.71,2.4a7,7,0,0,0-3.26-.78c-1.89,0-2.69,1-2.69,2,0,1.25.94,1.84,3.11,2.67,2.84,1.08,4.2,2.5,4.2,4.84C38.47,36.74,36.49,39,32.29,39Z"/></svg>